<svg width="16" height="16" viewBox="0 0 16 16" fill="none" xmlns="http://www.w3.org/2000/svg">
<path d="M3.31926 6.4568C1.99534 5.92723 1.33337 5.66245 1.33337 5.33341C1.33337 5.00438 1.99534 4.7396 3.31926 4.21003L5.19157 3.4611C6.5155 2.93153 7.17746 2.66675 8.00004 2.66675C8.82262 2.66675 9.48458 2.93153 10.8085 3.4611L12.6808 4.21003C14.0047 4.7396 14.6667 5.00438 14.6667 5.33341C14.6667 5.66245 14.0047 5.92723 12.6808 6.4568L10.8085 7.20573C9.48458 7.7353 8.82262 8.00008 8.00004 8.00008C7.17746 8.00008 6.5155 7.7353 5.19157 7.20573L3.31926 6.4568Z" stroke="black" stroke-width="1.5"/>
<path d="M3.84413 6.66675L3.31926 6.87669C1.99534 7.40626 1.33337 7.67105 1.33337 8.00008C1.33337 8.32911 1.99534 8.5939 3.31926 9.12347L5.19157 9.87239C6.5155 10.402 7.17746 10.6667 8.00004 10.6667C8.82262 10.6667 9.48458 10.402 10.8085 9.87239L12.6808 9.12347C14.0047 8.5939 14.6667 8.32911 14.6667 8.00008C14.6667 7.67105 14.0047 7.40626 12.6808 6.87669L12.156 6.66675" stroke="black" stroke-width="1.5"/>
<path d="M3.84413 9.33325L3.31926 9.5432C1.99534 10.0728 1.33337 10.3376 1.33337 10.6666C1.33337 10.9956 1.99534 11.2604 3.31926 11.79L5.19157 12.5389C6.5155 13.0685 7.17746 13.3333 8.00004 13.3333C8.82262 13.3333 9.48458 13.0685 10.8085 12.5389L12.6808 11.79C14.0047 11.2604 14.6667 10.9956 14.6667 10.6666C14.6667 10.3376 14.0047 10.0728 12.6808 9.5432L12.156 9.33325" stroke="black" stroke-width="1.5"/>
</svg>
