<svg width="16" height="16" viewBox="0 0 16 16" fill="none" xmlns="http://www.w3.org/2000/svg">
<g clip-path="url(#clip0_424_2748)">
<path d="M1.33337 8.01733C1.33337 11.4481 3.91146 14.2752 7.23123 14.6574C7.7211 14.7138 8.19592 14.505 8.54459 14.1554C8.98022 13.7187 8.98022 13.0105 8.54459 12.5737C8.19592 12.2242 7.91167 11.7027 8.17463 11.2845C9.22574 9.61272 14.6667 13.4519 14.6667 8.01733C14.6667 4.32581 11.6819 1.33325 8.00004 1.33325C4.31814 1.33325 1.33337 4.32581 1.33337 8.01733Z" stroke="white" stroke-width="1.5"/>
<mask id="path-3-inside-1_424_2748" fill="white">
<ellipse cx="11.6666" cy="7.66675" rx="1" ry="1"/>
</mask>
<path d="M11.1666 7.66675C11.1666 7.39061 11.3905 7.16675 11.6666 7.16675V10.1667C13.0473 10.1667 14.1666 9.04746 14.1666 7.66675H11.1666ZM11.6666 7.16675C11.9428 7.16675 12.1666 7.39061 12.1666 7.66675H9.16663C9.16663 9.04746 10.2859 10.1667 11.6666 10.1667V7.16675ZM12.1666 7.66675C12.1666 7.94289 11.9428 8.16675 11.6666 8.16675V5.16675C10.2859 5.16675 9.16663 6.28604 9.16663 7.66675H12.1666ZM11.6666 8.16675C11.3905 8.16675 11.1666 7.94289 11.1666 7.66675H14.1666C14.1666 6.28604 13.0473 5.16675 11.6666 5.16675V8.16675Z" fill="white" mask="url(#path-3-inside-1_424_2748)"/>
<mask id="path-5-inside-2_424_2748" fill="white">
<ellipse cx="4.33337" cy="7.66675" rx="1" ry="1"/>
</mask>
<path d="M3.83337 7.66675C3.83337 7.39061 4.05723 7.16675 4.33337 7.16675V10.1667C5.71409 10.1667 6.83337 9.04746 6.83337 7.66675H3.83337ZM4.33337 7.16675C4.60952 7.16675 4.83337 7.39061 4.83337 7.66675H1.83337C1.83337 9.04746 2.95266 10.1667 4.33337 10.1667V7.16675ZM4.83337 7.66675C4.83337 7.94289 4.60952 8.16675 4.33337 8.16675V5.16675C2.95266 5.16675 1.83337 6.28604 1.83337 7.66675H4.83337ZM4.33337 8.16675C4.05723 8.16675 3.83337 7.94289 3.83337 7.66675H6.83337C6.83337 6.28604 5.71409 5.16675 4.33337 5.16675V8.16675Z" fill="white" mask="url(#path-5-inside-2_424_2748)"/>
<path d="M6.64001 4.6665C6.64001 4.80458 6.52809 4.9165 6.39001 4.9165C6.25194 4.9165 6.14001 4.80458 6.14001 4.6665C6.14001 4.52843 6.25194 4.4165 6.39001 4.4165C6.52809 4.4165 6.64001 4.52843 6.64001 4.6665Z" stroke="white" stroke-width="1.5"/>
<path d="M9.91663 4.66675C9.91663 4.80482 9.8047 4.91675 9.66663 4.91675C9.52855 4.91675 9.41663 4.80482 9.41663 4.66675C9.41663 4.52868 9.52855 4.41675 9.66663 4.41675C9.8047 4.41675 9.91663 4.52868 9.91663 4.66675Z" stroke="white" stroke-width="1.5"/>
</g>
<defs>
<clipPath id="clip0_424_2748">
<rect width="16" height="16" rx="5" fill="white"/>
</clipPath>
</defs>
</svg>
